name rise35.5848peak51.9257fall54.8793.mot
datacolumns 19
datarows 17
range 5.64164000000000 5.66830900000000
endheader
time	ground_force1_vx	ground_force1_vy	ground_force1_vz	ground_force1_px	ground_force1_py	ground_force1_pz	ground_force2_vx	ground_force2_vy	ground_force2_vz	ground_force2_px	ground_force2_py	ground_force2_pz	ground_torque1_x	ground_torque1_y	ground_torque1_z	ground_torque2_x	ground_torque2_y	ground_torque2_z	
5.64164000000000	-29.71240200000000	808.13886900000000	59.51406200000000	0.14128300000000	0.00000000000000	0.11307500000000	-1.89212900000000	6.75226800000000	0.35474400000000	0.00000000000000	0.00000000000000	0.00000000000000	0.00000000000000	24.42051900000000	0.00000000000000	0.00000000000000	-0.02774400000000	0.00000000000000	
5.64330300000000	-30.24730100000000	806.98735799999997	59.45134300000000	0.14032800000000	0.00000000000000	0.11296900000000	-2.75697200000000	10.70627100000000	0.53555400000000	0.00000000000000	0.00000000000000	0.00000000000000	0.00000000000000	24.35592000000000	0.00000000000000	0.00000000000000	-0.03388200000000	0.00000000000000	
5.64497100000000	-30.79669000000000	805.71360600000003	59.36548500000000	0.13938200000000	0.00000000000000	0.11286000000000	-3.71158800000000	15.30599000000000	0.73970000000000	0.00000000000000	0.00000000000000	0.00000000000000	0.00000000000000	24.29019200000000	0.00000000000000	0.00000000000000	-0.03905800000000	0.00000000000000	
5.64664400000000	-31.36074200000000	804.31440699999996	59.25585000000000	0.13844500000000	0.00000000000000	0.11274900000000	-4.72674800000000	20.48103200000000	0.96214900000000	0.00000000000000	0.00000000000000	0.00000000000000	0.00000000000000	24.22344500000000	0.00000000000000	0.00000000000000	-0.04268800000000	0.00000000000000	
5.64830800000000	-31.93957800000000	802.78657899999996	59.12183400000000	0.13751900000000	0.00000000000000	0.11263500000000	-5.76833800000000	26.13630300000000	1.19673000000000	0.32314800000000	0.00000000000000	-0.07314300000000	0.00000000000000	24.15578400000000	0.00000000000000	0.00000000000000	-0.07938600000000	0.00000000000000	
5.64997500000000	-32.53325600000000	801.12696200000005	58.96287100000000	0.13660400000000	0.00000000000000	0.11251700000000	-6.79981900000000	32.16002500000000	1.43657800000000	0.32874600000000	0.00000000000000	-0.07299800000000	0.00000000000000	24.08730500000000	0.00000000000000	0.00000000000000	-0.06714300000000	0.00000000000000	
5.65164000000000	-33.14177500000000	799.33242900000005	58.77844000000000	0.13570000000000	0.00000000000000	0.11239700000000	-7.78494600000000	38.43337700000000	1.67464400000000	0.33387100000000	0.00000000000000	-0.07286100000000	0.00000000000000	24.01809500000000	0.00000000000000	0.00000000000000	-0.04688800000000	0.00000000000000	
5.65332200000000	-33.76507200000000	797.39988500000004	58.56805900000000	0.13480800000000	0.00000000000000	0.11227400000000	-8.69037800000000	44.84037200000000	1.90419900000000	0.33859300000000	0.00000000000000	-0.07273100000000	0.00000000000000	23.94823100000000	0.00000000000000	0.00000000000000	-0.01842500000000	0.00000000000000	
5.65497200000000	-34.40301800000000	795.32627500000001	58.33129200000000	0.13392900000000	0.00000000000000	0.11214700000000	-9.48785100000000	51.27666800000000	2.11927400000000	0.34296500000000	0.00000000000000	-0.07261000000000	0.00000000000000	23.87778000000000	0.00000000000000	0.00000000000000	0.01810000000000	0.00000000000000	
5.65664400000000	-35.05541400000000	793.10859100000005	58.06775200000000	0.13306300000000	0.00000000000000	0.11201700000000	-10.15568500000000	57.65636200000000	2.31497800000000	0.34703200000000	0.00000000000000	-0.07249600000000	0.00000000000000	23.80679900000000	0.00000000000000	0.00000000000000	0.06222600000000	0.00000000000000	
5.65831000000000	-35.72199500000000	790.74387300000001	57.77709800000000	0.13221000000000	0.00000000000000	0.11188400000000	-10.67955500000000	63.91631600000000	2.48768900000000	0.35083100000000	0.00000000000000	-0.07238900000000	0.00000000000000	23.73532900000000	0.00000000000000	0.00000000000000	0.11322500000000	0.00000000000000	
5.65997100000000	-36.40242300000000	788.22922000000005	57.45904000000000	0.13137200000000	0.00000000000000	0.11174700000000	-11.05254600000000	70.01793000000001	2.63510700000000	0.35439100000000	0.00000000000000	-0.07228900000000	0.00000000000000	23.66340100000000	0.00000000000000	0.00000000000000	0.17016000000000	0.00000000000000	
5.66163700000000	-37.09629100000000	785.56179299999997	57.11334000000000	0.13054800000000	0.00000000000000	0.11160700000000	-11.27460300000000	75.94660700000000	2.75619500000000	0.35773600000000	0.00000000000000	-0.07219700000000	0.00000000000000	23.59103100000000	0.00000000000000	0.00000000000000	0.23195300000000	0.00000000000000	
5.66330800000000	-37.80311300000000	782.73882100000003	56.73981300000000	0.12973800000000	0.00000000000000	0.11146400000000	-11.35150500000000	81.70933599999999	2.85102200000000	0.36088700000000	0.00000000000000	-0.07211100000000	0.00000000000000	23.51822200000000	0.00000000000000	0.00000000000000	0.29745300000000	0.00000000000000	
5.66497700000000	-38.52233100000000	779.75760900000000	56.33832800000000	0.12894300000000	0.00000000000000	0.11131700000000	-11.29355000000000	87.33091500000000	2.92054100000000	0.36385900000000	0.00000000000000	-0.07203200000000	0.00000000000000	23.44496100000000	0.00000000000000	0.00000000000000	0.36549300000000	0.00000000000000	
5.66663600000000	-39.25331000000000	776.61554400000000	55.90880800000000	0.12816300000000	0.00000000000000	0.11116600000000	-11.11409700000000	92.84936500000001	2.96634000000000	0.36666800000000	0.00000000000000	-0.07196100000000	0.00000000000000	23.37122100000000	0.00000000000000	0.00000000000000	0.43494100000000	0.00000000000000	
5.66830900000000	-39.99533900000000	773.31010100000003	55.45123500000000	0.12739800000000	0.00000000000000	0.11101200000000	-10.82811600000000	98.31105500000000	2.99037700000000	0.36932500000000	0.00000000000000	-0.07189600000000	0.00000000000000	23.29695900000000	0.00000000000000	0.00000000000000	0.50473300000000	0.00000000000000	
